<?xml version="1.0" encoding="utf-8" ?><svg xmlns="http://www.w3.org/2000/svg" xmlns:xlink="http://www.w3.org/1999/xlink" width="3366" height="2901" viewBox="0 0 3366 2901"><path fill="#282626" transform="matrix(3.02154 0 0 3.02188 0 -0.000244141)" d="M516.464 251.008C510.397 242.945 504.667 233.965 502.889 223.739C493.12 167.546 556.313 138.06 600.235 166.228C614.447 175.342 621.288 191.254 624.307 207.304C626.896 208.335 630.028 209.684 632.392 211.099C643.874 217.947 652.127 229.116 655.303 242.102C658.214 253.8 656.292 266.178 649.97 276.443C637.243 297.213 618.132 302.663 596.39 307.851C606.783 308.164 617.909 309.384 628.448 309.896C650.728 310.978 672.801 312.023 695.037 313.918C697.259 310.248 699.124 307.592 702.516 304.926C707.461 300.977 713.81 299.23 720.08 300.094C726.67 300.979 732.503 304.637 736.478 309.924C740.379 315.11 742.023 321.65 741.037 328.064C738.407 345.867 718.935 354.619 703.637 344.944C700.298 342.832 697.427 339.154 695.295 335.87C684.114 336.72 671.396 338.427 660.116 339.59C638.051 341.949 615.937 343.826 593.79 345.22L593.956 449.369C602.58 455.646 605.214 460.461 611.275 469.128C614.16 473.341 618.357 477.354 621.045 481.642C644.551 519.136 654.752 563.354 645.284 606.982C643.539 615.025 639.045 624.914 635.546 632.44C666.59 626.077 697.514 612.264 717.088 586.313C703.937 586.868 692.233 587.351 679.136 585.597C715.662 556.641 727.624 541.294 746.115 499.101C751.67 486.561 757.025 473.933 762.18 461.223C764.099 462.909 765.981 464.637 767.822 466.408C817.862 515.335 794.469 600.404 750.524 644.898C751.398 627.582 751.762 618.804 748.552 601.656C722.182 648.686 694.306 668.483 644.774 688.646C622.287 697.799 596.935 710.036 579.128 726.691C574.074 731.418 569.394 736.991 564.124 741.593L563.648 742.005C556.852 735.293 548.428 726.853 540.817 721.192C512.912 700.438 477.417 686.495 445.632 671.832C445.124 679.976 443.715 683.745 446.212 692.148C450.529 706.681 452.221 714.049 465.35 721.744C466.271 722.286 468.477 723.448 469.037 724.157C472.915 726.492 476.26 730.86 476.845 735.312C478.806 750.233 476.881 757.107 461.322 753.129L457.449 751.489C445.9 746.405 435.817 738.497 428.128 728.493C409.974 704.841 413.8 679.948 417.322 653.057C399.436 637.799 387.025 620.74 376.083 600.115C373.547 613.757 374.909 628.796 376.864 642.37C345.228 616.186 326.969 574.465 328.867 533.296C330.242 503.49 342.263 480.281 364.482 460.663C378.666 497.989 391.353 539.977 421.905 567.156C430.399 574.712 437.45 579.056 446.923 585.056C434.727 587.07 420.682 586.563 408.429 585.448C417.895 599.628 426.497 605.196 440.543 613.976C443.729 612.043 448.818 609.737 452.362 608.651C480.748 599.95 504.533 604.166 530.143 616.888C530.797 600.97 530.75 583.504 531.091 567.433C532.096 520.753 532.44 474.061 532.124 427.371C528.117 421.955 522.708 417.104 518.639 411.672C503.958 392.076 492.762 367.033 492.187 342.356C472.033 340.52 451.23 337.707 430.752 335.759C416.787 360.444 381.468 348.026 385.192 321.041C386.144 314.332 389.751 308.286 395.202 304.261C400.301 300.56 406.687 299.097 412.888 300.209C421.575 301.704 426.74 307.206 431.494 314.042C448.42 312.112 475.542 310.842 492.653 310.304C494.592 301.281 497.558 292.327 500.386 283.541C496.479 280.004 489.986 275.289 485.514 272.267C474.883 265.083 474.551 248.677 485.641 241.531C488.673 239.542 492.401 238.919 495.914 239.815C504.231 241.923 507.584 250.783 511.614 257.608L516.464 251.008ZM595.094 634.105C600.327 630.613 603.228 628.382 606.448 622.831C608.958 618.145 613.548 609.741 614.746 604.736C620.163 582.089 618.239 554.734 611.382 532.598C608.179 522.259 601.854 505.807 593.593 499.021C593.119 544.054 593.62 589.093 595.094 634.105ZM526.377 301.1C525.889 303.143 525.255 304.685 525.85 306.628C527.752 308.224 529.187 307.961 531.883 308.012C532.111 305.193 532.508 305.527 531.461 303.332C529.745 302.128 528.335 301.775 526.377 301.1ZM532.055 345.369C528.508 345.04 525.766 344.835 522.213 344.798C523.929 351.192 527.534 368.681 531.971 372.347C532.147 363.355 532.175 354.362 532.055 345.369ZM539.869 222.432C544.645 218.149 548.234 215.233 553.723 211.632C563.121 206.01 573.136 201.899 584.164 201.025C577.356 192.13 570.606 188.506 559.173 189.948C541.063 194.669 536.974 205.343 539.869 222.432ZM618.462 239.208C611.46 250.192 605.685 257.606 594.022 264.294C593.946 268.589 593.127 273.613 595.731 276.679C597.795 277.535 598.104 277.245 600.637 276.692C609.781 272.949 620.09 268.985 623.996 259.048C627.429 250.314 624.728 245.184 618.462 239.208Z"/><path fill="#BF9961" transform="matrix(3.02154 0 0 3.02188 0 -0.000244141)" d="M457.449 751.489C456.635 745.959 450.219 744.366 448.018 739.538C445.873 734.833 447.577 717.211 452.63 715.225C458.289 718.945 455.114 738.3 459.824 744.243L460.83 744.309C465.487 738.514 459.399 732.341 461.564 725.076C463.298 723.705 463.052 724.133 465.633 723.815L465.35 721.744C466.271 722.286 468.477 723.448 469.037 724.157C472.915 726.492 476.26 730.86 476.845 735.312C478.806 750.233 476.881 757.107 461.322 753.129L457.449 751.489Z"/><path fill="#282626" transform="matrix(3.02154 0 0 3.02188 0 -0.000244141)" d="M469.037 724.157C472.915 726.492 476.26 730.86 476.845 735.312C478.806 750.233 476.881 757.107 461.322 753.129C477.166 751.484 476.554 737.487 469.562 726.839C468.591 724.99 468.625 725.869 469.037 724.157Z"/><path fill="#3B342F" transform="matrix(3.02154 0 0 3.02188 0 -0.000244141)" d="M465.35 721.744C466.271 722.286 468.477 723.448 469.037 724.157C468.625 725.869 468.591 724.99 469.562 726.839C468.157 725.811 466.971 724.927 465.633 723.815L465.35 721.744Z"/><path fill="#BF9961" transform="matrix(3.02154 0 0 3.02188 0 -0.000244141)" d="M480.669 264.147C482.137 256.268 483.173 250.469 490.329 245.438C495.357 241.903 500.772 243.687 503.675 248.757C507.559 255.541 506.092 264.792 504.052 271.872C503.019 275.378 501.793 278.824 500.38 282.194C499.008 278.319 498.176 275.827 497.737 271.71C497.037 265.153 498.31 258.479 496.006 252.229L495.376 251.991C493.038 257.168 494.819 266.833 492.298 272.415C490.311 273.102 489.453 272.629 487.212 271.808C485.934 271.549 485.03 270.383 484.555 269.246L480.669 264.147Z"/><path fill="#3B342F" transform="matrix(3.02154 0 0 3.02188 0 -0.000244141)" d="M484.555 269.246C485.566 270.086 486.601 270.737 487.212 271.808C485.934 271.549 485.03 270.383 484.555 269.246Z"/><path fill="#BF9961" transform="matrix(3.02154 0 0 3.02188 0 -0.000244141)" d="M618.389 485.938C628.214 495.558 618.333 513.687 613.985 523.499C609.713 523.968 610.297 514.218 610.828 511.661C612.601 503.113 615.669 494.208 618.389 485.938Z"/><path fill="#BF9961" transform="matrix(3.02154 0 0 3.02188 0 -0.000244141)" d="M517.532 348.518C523.963 354.798 510.109 377.913 505.818 383.625C497.984 371.824 510.669 357.67 517.532 348.518Z"/><path fill="#BF9961" transform="matrix(3.02154 0 0 3.02188 0 -0.000244141)" d="M608.243 472.408C609.465 473.345 610.472 474.532 611.197 475.89C615.775 484.675 610.699 501.172 607.758 509.989C598.024 505.488 606.216 480.308 608.243 472.408Z"/><path fill="#BF9961" transform="matrix(3.02154 0 0 3.02188 0 -0.000244141)" d="M516.619 334.428C521.887 341.532 503.806 360.803 499.458 368.052C493.607 353.126 506.851 343.553 516.619 334.428Z"/><path fill="#BF9961" transform="matrix(3.02154 0 0 3.02188 0 -0.000244141)" d="M633.83 623.921C634.879 623.643 634.458 623.676 635.559 623.949L635.74 625.156C631.836 636.712 612.54 636.586 602.556 636.577C601.78 636.405 601.268 636.08 600.526 635.726L600.339 634.909C606.128 627.837 623.923 627.054 633.051 624.172L633.83 623.921Z"/><path fill="#BF9961" transform="matrix(3.02154 0 0 3.02188 0 -0.000244141)" d="M635.496 516.016C642.38 525.338 627.996 545.155 621.613 552.084C620.874 550.372 620.108 547.635 619.529 545.786C621.944 537.27 630.697 524.185 635.496 516.016Z"/><path fill="#BF9961" transform="matrix(3.02154 0 0 3.02188 0 -0.000244141)" d="M641.056 605.914C641.528 605.975 641.198 605.9 641.921 606.442C641.379 619.045 620.781 623.089 610.968 625.428C610.719 625.323 610.27 624.892 610.035 624.691C611.337 616.366 633.768 609.319 641.056 605.914Z"/><path fill="#BF9961" transform="matrix(3.02154 0 0 3.02188 0 -0.000244141)" d="M525.068 618.896C537.368 622.14 537.553 644.054 538.638 654.608C537.64 654.055 536.66 653.471 535.699 652.856C527.569 647.551 527.146 629.141 525.068 618.896Z"/><path fill="#BF9961" transform="matrix(3.02154 0 0 3.02188 0 -0.000244141)" d="M526.612 376.024C533.195 380.59 529.496 392.255 527.742 398.669C527.062 401.157 524.487 411.177 523.533 412.434C514.479 400.928 521.835 387.804 526.612 376.024Z"/><path fill="#BF9961" transform="matrix(3.02154 0 0 3.02188 0 -0.000244141)" d="M540.652 253.19C543.208 252.828 544.46 252.377 546.469 253.592C548.074 261.856 523.081 263.817 517.823 264.516C515.629 264.966 514.561 265.689 513.217 263.845C514.176 255.708 534.326 253.829 540.652 253.19Z"/><path fill="#BF9961" transform="matrix(3.02154 0 0 3.02188 0 -0.000244141)" d="M639.821 534.493C647.213 544.986 629.971 560.912 623.398 568.096C622.88 567.334 622.471 566.503 622.183 565.628C619.628 557.79 635.337 542.955 639.821 534.493Z"/><path fill="#BF9961" transform="matrix(3.02154 0 0 3.02188 0 -0.000244141)" d="M539.424 628.341C549.435 632.755 552.088 653.189 554.36 663.112C541.727 658.729 539.616 639.726 539.424 628.341Z"/><path fill="#BF9961" transform="matrix(3.02154 0 0 3.02188 0 -0.000244141)" d="M644.385 225.994C655.859 237.798 643.22 250.974 632.905 257.43C630.922 257.792 631.217 258.065 629.727 257.376C628.922 251.231 637.52 244.965 640.071 239.789C642.003 235.869 643.162 230.329 644.385 225.994Z"/><path fill="#BF9961" transform="matrix(3.02154 0 0 3.02188 0 -0.000244141)" d="M641.854 552.413C643.509 553.326 643.76 557.219 643.634 558.874C642.873 568.903 630.592 576.332 623.619 582.665C623.329 582.76 623.011 582.612 622.71 582.564C620.636 571.59 635.325 562.417 641.854 552.413Z"/><path fill="#BF9961" transform="matrix(3.02154 0 0 3.02188 0 -0.000244141)" d="M461.774 610.312C463.031 610.241 464.841 610.198 466.046 610.567C471.179 612.136 486.061 624.376 484.264 629.941C482.687 630.621 481.559 630.042 479.836 629.566C469.399 625.356 469.922 618.442 453.309 613.472C456.48 612.067 458.458 611.367 461.774 610.312Z"/><path fill="#BF9961" transform="matrix(3.02154 0 0 3.02188 0 -0.000244141)" d="M607.362 277.339C612.491 277.104 621.845 280.973 627.359 282.166C633.319 283.456 634.377 283.457 640.736 283.353C638.591 285.427 637.26 286.345 634.843 288.073C623.733 292.29 611.864 285.192 602.159 280.282L607.362 277.339Z"/><path fill="#BF9961" transform="matrix(3.02154 0 0 3.02188 0 -0.000244141)" d="M440.127 677.094C445.21 680.217 425.529 703.489 422.648 707.95C414.896 695.354 431.418 683.152 440.127 677.094Z"/><path fill="#BF9961" transform="matrix(3.02154 0 0 3.02188 0 -0.000244141)" d="M537.734 241.125C543.355 240.559 551.944 241.555 557.626 242.289C557.248 242.755 556.857 243.21 556.453 243.654C552.351 248.137 549.219 248.891 543.537 249.142C539.544 249.288 525.63 251.197 523.361 248.159C524.413 243.366 533.628 241.713 537.734 241.125Z"/><path fill="#BF9961" transform="matrix(3.02154 0 0 3.02188 0 -0.000244141)" d="M564.5 642.569C576.628 645.688 580.371 659.032 592.068 662.673C593.457 663.105 593.736 663.121 594.983 663.921L594.971 665.158C577.491 670.414 570.426 655.741 564.5 642.569Z"/><path fill="#BF9961" transform="matrix(3.02154 0 0 3.02188 0 -0.000244141)" d="M521.231 362.442C529.91 368.752 517.642 389.143 514.494 397.229C506.041 388.985 516.982 370.646 521.231 362.442Z"/><path fill="#BF9961" transform="matrix(3.02154 0 0 3.02188 0 -0.000244141)" d="M443.746 703.527C450.935 707.371 443.383 724.453 442.8 730.415C442.607 732.385 443.112 735.815 442.444 737.179L441.263 737.039C430.253 725.697 437.613 714.941 443.746 703.527Z"/><path fill="#BF9961" transform="matrix(3.02154 0 0 3.02188 0 -0.000244141)" d="M627.53 503.443C636.061 510.111 622.795 530.257 618.771 537.06C618.468 536.997 618.165 536.934 617.863 536.872C612.403 527.384 622.903 511.628 627.53 503.443Z"/><path fill="#BF9961" transform="matrix(3.02154 0 0 3.02188 0 -0.000244141)" d="M575.209 282.964C587.745 282.316 590.598 290.603 599.742 297.233C601.563 298.553 605.977 300.341 606.978 301.619L606.396 302.564C601.135 304.178 600.317 303.593 595.396 301.993C589.854 300.193 577.145 287.726 575.209 282.964Z"/><path fill="#BF9961" transform="matrix(3.02154 0 0 3.02188 0 -0.000244141)" d="M578.554 645.557C587.447 645.2 592.848 648.779 601.242 651.103C605.149 652.184 608.868 652.683 612.849 653.361C612.832 654.334 611.919 655.229 611.23 656.216C600.491 662.04 584.288 656.301 578.554 645.557Z"/><path fill="#BF9961" transform="matrix(3.02154 0 0 3.02188 0 -0.000244141)" d="M552.247 636.999C562.788 641.382 562.715 651.873 568.425 660.545C570.351 663.47 572.101 665.12 574.547 667.617C557.369 667.63 554.701 650.435 552.247 636.999Z"/><path fill="#BF9961" transform="matrix(3.02154 0 0 3.02188 0 -0.000244141)" d="M440.347 690.555C440.588 690.776 441.066 691.547 441.274 691.856C442.502 699.367 434.124 714.513 431.504 722.245C431.044 723.602 430.526 723.491 429.573 723.729C421.421 711.29 432.569 699.806 440.347 690.555Z"/><path fill="#BF9961" transform="matrix(3.02154 0 0 3.02188 0 -0.000244141)" d="M550.797 219.25C552.437 219.195 554.078 219.254 555.71 219.426C561.535 219.983 573.681 222.89 577.505 227.548C577.756 230.687 574.051 231.071 571.567 231.171C560.217 228.541 555.276 225.888 542.982 224.584C546.074 222.067 547.332 221.247 550.797 219.25Z"/><path fill="#BF9961" transform="matrix(3.02154 0 0 3.02188 0 -0.000244141)" d="M644.178 587.88C644.468 588.079 644.759 588.278 645.049 588.477C645.077 590.528 644.693 592.565 643.92 594.466C640.147 603.625 626.865 607.906 618.358 611.188L617.693 610.833L617.376 609.737C619.778 601.839 636.742 593.444 644.178 587.88Z"/><path fill="#BF9961" transform="matrix(3.02154 0 0 3.02188 0 -0.000244141)" d="M509.402 612.65C523.523 615.912 524.283 633.108 524.982 644.876C514.715 641.087 513.503 622.744 509.757 613.508L509.402 612.65Z"/><path fill="#BF9961" transform="matrix(3.02154 0 0 3.02188 0 -0.000244141)" d="M596.542 458.94C606.645 467.059 601.733 484.702 599.45 495.367L598.646 495.791C596.827 494.944 595.874 493.348 594.592 491.721C593.765 482.434 595.721 468.58 596.542 458.94Z"/><path fill="#BF9961" transform="matrix(3.02154 0 0 3.02188 0 -0.000244141)" d="M529.537 277.917L530.386 277.916L530.845 278.703C528.934 287.786 509.359 293.368 501.205 296.567C500.687 296.73 501.034 296.679 500.176 296.346C499.865 285.417 521.143 280.734 529.537 277.917Z"/><path fill="#BF9961" transform="matrix(3.02154 0 0 3.02188 0 -0.000244141)" d="M543.95 229.661C552.073 229.201 560.076 231.679 567.789 233.917C563.765 237.393 562.031 238.118 556.928 238.926C548.122 237.696 540.533 236.715 531.652 236.578C536.034 231.909 537.969 230.965 543.95 229.661Z"/><path fill="#BF9961" transform="matrix(3.02154 0 0 3.02188 0 -0.000244141)" d="M590.63 282.464C602.514 281.565 604.803 286.129 614.09 291.381C615.238 292.03 622.753 294.443 624.418 294.982L624.358 295.493L622.06 297.206C610.578 300.714 598.772 291.377 590.734 284C590.288 283.591 590.555 283.131 590.63 282.464Z"/><path fill="#BF9961" transform="matrix(3.02154 0 0 3.02188 0 -0.000244141)" d="M651.406 247.894C652.065 248.561 652.319 249.22 652.354 250.184C652.928 265.705 638.037 267.077 626.151 267.09L625.586 266.28C626.736 262.631 632.933 260.102 636.276 258.489C642.796 255.344 646.612 253.314 651.406 247.894Z"/><path fill="#BF9961" transform="matrix(3.02154 0 0 3.02188 0 -0.000244141)" d="M523.669 292.068C527.798 299.379 502.377 310.705 497.223 313.786C490.727 304.151 518.539 294.161 523.669 292.068Z"/><path fill="#BF9961" transform="matrix(3.02154 0 0 3.02188 0 -0.000244141)" d="M535.567 265.041C536.676 264.796 536.784 264.886 537.944 264.904L538.39 265.698C534.81 275.254 518.541 276.2 509.966 279.252L509.266 279.505L507.382 280.116L506.741 279.591C508.364 268.789 527.215 266.571 535.567 265.041Z"/><path fill="#BF9961" transform="matrix(3.02154 0 0 3.02188 0 -0.000244141)" d="M535.173 276.35C543.89 279.066 548.52 294.806 554.58 303.643C539.093 302.856 535.746 289.238 535.173 276.35Z"/><path fill="#BF9961" transform="matrix(3.02154 0 0 3.02188 0 -0.000244141)" d="M493.199 609.225C496.953 609.531 498.248 609.992 501.337 612.232C507.03 616.358 512.219 631.138 512.642 637.934C510.782 637.206 509.535 636.481 507.908 635.443C503.664 632.737 493.775 612.808 493.199 609.225Z"/><path fill="#BF9961" transform="matrix(3.02154 0 0 3.02188 0 -0.000244141)" d="M630.042 212.864C630.178 212.933 630.315 213.003 630.451 213.072C634.024 215.06 636.615 218.44 637.606 222.407C639.65 230.407 636.262 238.761 632.31 245.55C631.559 246.254 631.107 246.547 630.268 247.167L629.167 247.001C625.919 242.805 631.157 229.155 631.312 223.863C631.426 219.996 630.821 216.619 630.042 212.864Z"/><path fill="#BF9961" transform="matrix(3.02154 0 0 3.02188 0 -0.000244141)" d="M644.356 569.909C645.483 571.169 645.42 574.635 644.97 576.125C642.027 585.879 629.774 592.616 621.793 597.233C617.705 591.222 639.946 574.927 644.356 569.909Z"/><path fill="#BF9961" transform="matrix(3.02154 0 0 3.02188 0 -0.000244141)" d="M519.035 306.695C519.565 306.717 519.789 306.877 520.321 307.081C521.141 315.876 502.772 324.756 496.216 329.627C495.854 329.85 496.139 329.709 495.261 329.635C492.935 318.201 511.291 310.724 519.035 306.695Z"/><path fill="#BF9961" transform="matrix(3.02154 0 0 3.02188 0 -0.000244141)" d="M647.788 268.859L648.997 268.693L649.465 269.464C648.706 271.977 645.585 275.078 643.47 276.337C636.955 280.217 626.774 277.909 619.917 276.568C618.167 276.198 618.073 276.258 616.467 275.329L616.333 274.388C619.944 270.409 639.963 270.548 647.788 268.859Z"/><path fill="#BF9961" transform="matrix(3.02154 0 0 3.02188 0 -0.000244141)" d="M473.857 607.191C487.699 606.263 496.1 620.082 497.971 632.13C488.351 628.601 485.113 620.616 478.903 613.196C477.394 611.393 474.739 609.186 473.857 607.191Z"/><path fill="#BF9961" transform="matrix(3.02154 0 0 3.02188 0 -0.000244141)" d="M545.659 279.8C546.106 279.862 546.552 279.934 546.996 280.014C557.822 282.012 564.709 295.609 570.66 304.503C556.25 303.975 551.699 290.93 545.659 279.8Z"/><path fill="#BF9961" transform="matrix(3.02154 0 0 3.02188 0 -0.000244141)" d="M562.71 210.559C563.974 210.476 565.241 210.418 566.508 210.387C575.89 210.2 580.549 215.299 586.705 221.21C585.487 223.185 584.476 224.473 583.067 226.277C575.166 222.456 567.481 217.786 558.827 213.547C559.372 212.247 561.374 211.348 562.71 210.559Z"/><path fill="#BF9961" transform="matrix(3.02154 0 0 3.02188 0 -0.000244141)" d="M601.019 639.867C612.187 639.62 615.031 641.882 627.547 639.042C624.34 643.236 623.397 644.591 618.634 646.978C613.026 648.497 595.662 647.487 593.076 642.351C594.541 640.085 598.501 640.122 601.019 639.867Z"/><path fill="#BF9961" transform="matrix(3.02154 0 0 3.02188 0 -0.000244141)" d="M561.104 282.264C565.045 282.333 565.898 282.477 569.283 284.673C573.558 287.447 585.141 299.94 585.899 304.548C581.174 304.737 579.017 303.541 575.338 300.725C571.156 297.522 561.75 287.468 561.104 282.264Z"/><path fill="#BF9961" transform="matrix(3.02154 0 0 3.02188 0 -0.000244141)" d="M435.543 667.31C438.171 667.509 439.407 668.501 441.671 669.829C434.595 677.552 428.896 679.187 421.289 685.555C420.396 686.605 419.485 687.546 418.537 688.542L417.836 688.025C416.658 676.605 427.124 671.968 435.543 667.31Z"/><path fill="#BF9961" transform="matrix(3.02154 0 0 3.02188 0 -0.000244141)" d="M516.782 321.405C517.601 322.088 517.311 321.874 517.743 323.043C516.929 332.653 501.217 339.001 496.522 346.614C496.08 346.672 496.4 346.666 495.65 346.214C494.049 334.541 508.605 326.857 516.782 321.405Z"/><path fill="#BF9961" transform="matrix(3.02154 0 0 3.02188 0 -0.000244141)" d="M624.472 215.71C627.199 220.078 628.212 235.673 623.555 239.063L620.622 234.359C622.251 227.814 623.332 222.347 624.472 215.71Z"/><path fill="#BF9961" transform="matrix(3.02154 0 0 3.02188 0 -0.000244141)" d="M424.304 659.013C425.591 659.664 430.654 663.27 432.125 664.274C428.703 665.664 425.548 667.263 422.246 668.896L416.853 672.222C418.563 665.619 419.734 663.843 424.304 659.013Z"/><path fill="#BF9961" transform="matrix(3.02154 0 0 3.02188 0 -0.000244141)" d="M580.161 204.527C586.537 204.464 590.123 210.639 586.773 214.531L586.03 214.296C583.049 211.51 577.781 208.906 576.79 206.406C577.772 204.898 577.958 205.27 580.161 204.527Z"/><path fill="#BF9961" transform="matrix(3.02154 0 0 3.02188 0 -0.000244141)" d="M531.698 287.016C533.37 288.785 536.234 296.881 536.016 299.57L534.853 300.365C526.852 296.528 527.821 293.964 531.698 287.016Z"/><path fill="#BF9961" transform="matrix(3.02154 0 0 3.02188 0 -0.000244141)" d="M449.257 617.988C456.741 618.679 461.077 621.077 466.96 625.517C462.098 625.285 453.2 620.847 449.257 617.988Z"/><path fill="#BF9961" transform="matrix(3.02154 0 0 3.02188 0 -0.000244141)" d="M530.757 404.279L532.204 402.528C532.151 407.943 532.173 415.549 531.699 420.845C529.827 413.409 530.258 411.807 530.757 404.279Z"/><path fill="#7B6346" transform="matrix(3.02154 0 0 3.02188 0 -0.000244141)" d="M530.757 404.279C530.865 403.29 531.107 402.076 531.275 401.073L531.769 400.793L532.204 402.528L530.757 404.279Z"/><path fill="#282626" transform="matrix(3.02154 0 0 3.02188 0 -0.000244141)" d="M639.467 819.864C662.658 817.784 670.201 852.079 671.096 868.945C671.465 875.9 671.046 881.94 669.977 888.739C673.172 890.919 677.039 892.958 680.45 894.862L675.882 904.397C671.744 902.732 668.504 900.693 664.689 898.439C662.774 900.219 660.672 901.551 658.517 903.032C650.269 906.521 639.845 907.895 632.094 901.791C615.483 888.708 607.473 848.182 618.628 830.087C622.516 823.78 632.442 820.804 639.467 819.864ZM651.729 890.476L645.778 886.894L649.736 877.935C652.537 879.151 655.7 880.446 658.415 881.766C658.826 870.147 657.223 834.291 639.418 831.561C638.689 831.45 636.86 831.582 636.034 831.625C625.083 837.098 625.451 846.726 626.95 857.904C628.486 869.353 633.098 898.977 650.862 893.633C651.506 893.439 652.304 892.54 652.749 892.043L652.841 891.159L651.729 890.476Z"/><path fill="#282626" transform="matrix(3.02154 0 0 3.02188 0 -0.000244141)" d="M170.665 241.62C182.468 240.93 189.538 242.887 200.153 247.903C240.106 266.784 232.963 282.203 216.158 315.466C212.673 313.942 209.237 312.139 205.839 310.414C185.229 299.752 162.258 288.8 142.185 277.628C148.634 263.128 153.763 246.084 170.665 241.62ZM158.179 270.851C172.587 279.483 193.178 289.261 208.704 296.82C210.868 297.786 210.366 297.979 212.175 297.514C222.965 279.68 217.169 272.651 199.937 263.169C189.824 257.605 182.159 254.094 170.386 254.583C163.856 258.571 161.331 263.929 158.179 270.851Z"/><path fill="#282626" transform="matrix(3.02154 0 0 3.02188 0 -0.000244141)" d="M145.484 309.674C160.444 308.601 184.101 315.677 196.565 324.256C202.223 328.151 206.227 334.119 207.289 340.986C208.335 347.848 206.584 354.843 202.428 360.403C197.664 366.763 192.35 368.863 184.767 369.917C166.392 370.672 126.08 361.718 122.188 339.654C121.031 332.691 122.698 325.554 126.818 319.823C131.762 312.954 137.536 310.965 145.484 309.674ZM183.583 357.144C201.253 352.436 198.228 338.227 183.744 332.135C173.028 327.628 158.481 322.413 146.869 322.688C129.887 326.985 129.283 339.741 144.436 346.884C155.814 352.248 171.016 356.569 183.583 357.144Z"/><path fill="#282626" transform="matrix(3.02154 0 0 3.02188 0 -0.000244141)" d="M347.302 53.3867C351.479 50.9402 359.328 46.2755 363.624 44.5963C368.887 52.1138 374.771 62.9205 379.487 71.0336L405.574 116.118C401.94 118.209 398.275 120.246 394.58 122.227C391.577 118.27 386.685 109.447 384.035 104.884C376.429 91.7272 369.016 78.4592 361.799 65.0846C368.46 86.8527 374.778 108.725 380.748 130.692L370.94 136.118C358.604 124.419 345.682 108.563 334.059 97.9823C331.36 94.5736 327.725 90.8882 324.595 87.8291C325.879 90.0134 331.862 100.443 333.173 101.814C334.202 103.955 335.541 105.946 336.724 108.005C343.715 120.171 351.2 132.054 357.705 144.494L347.003 150.362C341.012 141.75 334.757 130.548 329.452 121.387C321.095 107.131 312.979 92.7342 305.107 78.2041C310.353 74.8763 316.137 71.6601 321.573 68.2364C325.158 71.2897 332.56 79.6462 336.017 83.3496L366.331 115.796C362.963 108.03 360.438 98.4938 358.066 90.2744C354.583 77.948 350.995 65.6517 347.302 53.3867Z"/><path fill="#282626" transform="matrix(3.02154 0 0 3.02188 0 -0.000244141)" d="M213.759 596.05C215.991 597.647 219.229 604.984 220.553 607.747C204.136 620.642 186.92 632.507 170.459 645.28C188.456 641.221 212.293 633.516 230.365 628.3L236.758 640.191L187.095 678.223C193.667 675.711 202.368 673.365 209.238 671.366C221.807 667.65 234.443 664.162 247.139 660.903C249.625 664.947 251.364 668.15 253.529 672.333C248.629 673.956 240.141 675.758 234.875 677.033C213.21 682.57 191.619 688.393 170.108 694.5C168.051 690.664 166.1 686.772 164.258 682.828C180.143 669.298 196.58 656.43 213.527 644.256C193.12 650.621 172.625 655.161 152.479 661.862C150.587 657.85 148.643 653.865 146.645 649.905C152.097 644.636 164.086 635.37 170.233 630.463L213.759 596.05Z"/><path fill="#282626" transform="matrix(3.02154 0 0 3.02188 0 -0.000244141)" d="M491.55 6.22631C511.053 4.24954 520.643 31.5487 506.415 45.9223C518.542 52.5201 517.565 61.8578 521.772 73.6446C523.529 78.5652 524.206 79.9057 526.956 84.4487C524.927 84.861 517.644 86.4314 516.176 86.2831C501.149 84.7642 513.124 52.4149 493.282 54.8821C489.242 55.4358 485.215 56.0809 481.205 56.8169C482.244 66.9929 484.611 80.7708 486.413 90.961C482.24 91.7835 477.814 92.3933 473.594 93.0427C468.843 65.7251 464.287 38.3738 459.928 10.991C469.146 9.60614 482.767 6.85757 491.55 6.22631ZM475.008 19.7795C476.485 28.3661 477.759 36.9863 478.83 45.6329L485.325 44.2571C491.211 43.1164 494.284 42.9759 498.442 37.912C504.211 30.8868 497.894 16.5478 488.645 18.2024C484.145 18.5825 479.073 19.5285 475.008 19.7795Z"/><path fill="#282626" transform="matrix(3.02154 0 0 3.02188 0 -0.000244141)" d="M409.528 798.124C416.892 799.61 428.644 804.67 435.522 807.553C449.942 813.597 454.199 827.818 446.278 841.068C442.541 847.32 439.379 848.866 432.831 850.753C442.025 868.766 428.999 874.36 431.197 894.668C412.451 889.6 417.06 884.535 422.522 868.605C426.131 853.02 415.874 851.642 403.974 847.844C400.479 858.348 395.778 869.774 391.895 880.299C388.193 879.134 383.42 877.056 379.733 875.569C380.665 872.444 381.855 869.371 382.963 866.305C391.256 843.356 400.771 820.895 409.528 798.124ZM408.478 836.995C414.761 839.22 421.545 842.165 428.224 841.624C432.938 838.661 435.082 836.585 436.587 830.94C439.657 819.418 425.543 815.803 417.245 812.455C414.768 821.032 410.845 829.007 408.478 836.995Z"/><path fill="#282626" transform="matrix(3.02154 0 0 3.02188 0 -0.000244141)" d="M855.555 107.435C859.261 109.097 869.135 119.275 872.953 122.322C887.086 133.599 886.942 151.246 871.212 161.031C865.748 164.431 862.305 164.527 855.998 164.489C857.206 181.219 849.682 182.525 841.25 195.388C839.669 197.799 838.549 200.642 837.524 203.34C833.432 200.193 829.904 196.947 826.612 192.964C830.576 185.917 834.367 182.028 839.666 175.91C849.49 164.246 840.85 158.211 832.267 150.301C823.897 158.513 815.773 166.971 807.904 175.664C804.676 172.802 801.299 169.49 798.133 166.511C804.978 160.26 812.952 151.377 819.597 144.462L855.555 107.435ZM840.05 141.937C844.455 146.141 848.531 150.319 853.954 153.186C861.835 153.142 870.263 148.183 869.891 139.519C869.624 133.32 861.986 127.681 857.489 123.937C851.74 129.999 845.926 135.999 840.05 141.937Z"/><path fill="#282626" transform="matrix(3.02154 0 0 3.02188 0 -0.000244141)" d="M760.671 772.291C763.622 774.105 777.851 788.82 781.086 792.017L822.935 832.946C819.026 835.374 815.048 837.688 811.005 839.885C805.329 834.578 799.741 829.177 794.244 823.684C791.229 825.343 788.171 827.135 785.172 828.842L774.544 834.904C776.378 842.315 778.915 850.525 781.03 857.931C777.087 860.097 773.011 862.609 769.122 864.915C762.729 836.617 754.493 807.981 747.957 779.689C752.207 777.244 756.445 774.779 760.671 772.291ZM771.312 823.779C774.576 821.911 777.828 820.023 781.068 818.115L786.071 814.927C782.016 810.681 765.902 793.33 762.373 791.066C765.501 801.929 768.481 812.834 771.312 823.779Z"/><path fill="#282626" transform="matrix(3.02154 0 0 3.02188 0 -0.000244141)" d="M248.7 125.098C258.306 130.082 271.367 138.389 280.732 144.209C294.493 152.886 308.398 161.33 322.443 169.54C319.234 172.515 315.874 176.119 312.792 179.28C307.664 176.672 298.07 170.158 293.003 166.919C288.786 171.319 283.903 175.905 279.508 180.19L278.333 181.41C277.634 185.549 286.98 198.677 289.461 202.5C286.311 205.665 282.691 208.953 279.425 212.047C274.098 203.357 268.678 193.039 263.696 183.987L237.43 135.861C241.193 132.376 244.984 128.654 248.7 125.098ZM271.522 172.075L277.079 166.596C278.812 164.947 281.626 162.399 283.143 160.679C275.89 155.689 260.53 144.647 253.133 141.243C258.48 151.06 265.497 162.603 271.522 172.075Z"/><path fill="#282626" transform="matrix(3.02154 0 0 3.02188 0 -0.000244141)" d="M418.815 22.8904C422.807 25.1307 461.061 84.6049 467.556 94.3533C463.73 96.0017 458.665 97.6201 454.655 99.0223C451.184 93.8817 446.753 84.1425 441.727 80.0409C441.097 79.5264 439.906 80.0813 438.84 80.3432C433.063 82.5013 427.249 84.5577 421.399 86.5115C421.899 94.2748 422.961 101.809 423.38 109.823C419.455 111.471 415.168 113.008 411.167 114.524C409.143 86.3572 406.008 55.2276 405.16 27.4888C409.681 25.8685 414.234 24.3354 418.815 22.8904ZM431.877 70.8436C433.715 70.074 434.238 70.235 435.16 68.8848C433.534 65.1924 419.251 42.0472 416.707 39.5148C417.71 51.2583 418.879 62.9871 420.215 74.6975C423.665 73.5123 428.446 71.7119 431.877 70.8436Z"/><path fill="#282626" transform="matrix(3.02154 0 0 3.02188 0 -0.000244141)" d="M208.681 168.321C214.086 171.456 225.919 180.65 231.169 184.525L275.505 217.299C272.945 220.797 270.166 224.322 267.522 227.772C257.533 220.844 246.763 212.521 236.894 205.226C231.917 212.054 226.842 218.811 221.672 225.494C231.699 232.538 242.78 241.16 252.838 248.497L249.049 253.756L245.27 259.345C236.964 254.093 226.178 245.646 218.171 239.686L178.327 210.224C180.862 206.594 183.454 203.006 186.104 199.46C194.85 205.815 203.558 212.223 212.228 218.682C216.938 211.881 222.293 205.038 227.314 198.424C218.972 192.123 209.338 184.77 200.735 178.982C203.992 175.045 205.92 172.703 208.681 168.321Z"/><path fill="#BF9961" transform="matrix(3.02154 0 0 3.02188 0 -0.000244141)" d="M944.831 472.221C967.52 469.851 968.46 496.47 967.736 512.361C967.152 525.152 966.019 539.194 952.168 544.446C930.336 547.583 928.719 522.796 928.875 507.634C929.023 493.154 930.133 478.781 944.831 472.221ZM950.248 537.462C962.38 530.052 960.019 503.944 958.243 491.581C957.311 485.092 953.242 480.079 946.484 479.587C937.243 486.135 936.971 499.869 937.149 510.177C937.332 520.763 936.891 535.557 950.248 537.462Z"/><path fill="#282626" transform="matrix(3.02154 0 0 3.02188 0 -0.000244141)" d="M126.716 380.843C130.924 380.556 133.707 380.696 137.774 381.623C136.974 385.76 136.401 390.081 135.787 394.26C128.102 393.017 119.507 394.118 120.21 404.138C120.908 414.083 133.193 417.562 139.51 409.827C147.622 399.895 150.953 384.029 166.208 382.842C172.549 382.361 181.298 383.937 186.139 388.452C202.489 403.701 194.956 432.379 171.478 433.873C167.27 433.65 164.26 433.509 160.135 432.796C160.589 428.444 161.229 423.923 161.759 419.555C165.734 420.068 169.121 420.73 173.077 420.019C191.622 416.89 180.439 391.686 166.448 396.794C153.198 402.848 153.439 423.683 137.229 427.143C106.459 433.711 95.2614 387.78 126.716 380.843Z"/><path fill="#282626" transform="matrix(3.02154 0 0 3.02188 0 -0.000244141)" d="M743.954 39.8464C760.33 38.9632 776.877 50.6346 771.891 68.7007C771.223 71.1215 770.018 73.4972 768.933 75.7594C764.639 73.9925 761.677 72.3582 757.634 70.1498C758.265 68.6914 758.797 67.383 759.194 65.8337C760.06 62.4564 759.485 58.8714 757.607 55.9337C751.56 46.279 738.828 53.4213 738.177 62.6863C737.793 68.1362 744.794 76.0012 748.737 79.4843C762.186 91.3632 761.559 106.021 748.989 118.125C743.267 123.622 737.719 123.832 729.936 123.393C706.351 116.674 701.445 104.357 711.719 82.6299C715.66 84.2999 719.805 86.2782 723.725 88.0607C720.075 95.4083 715.749 104.511 725.32 110.024C728.265 111.709 731.762 112.144 735.03 111.232C738.354 110.306 741.142 108.037 742.724 104.971C750.307 90.451 728.754 83.1356 725.151 70.1596C723.447 63.9751 724.347 57.3624 727.642 51.8583C731.315 45.6453 737.022 41.6293 743.954 39.8464Z"/><path fill="#282626" transform="matrix(3.02154 0 0 3.02188 0 -0.000244141)" d="M992.314 378.785C994.449 378.96 996.476 379.119 998.639 379.586C1017.59 383.68 1023.67 412.314 1006.08 422.069C1001.73 424.484 997.843 425.072 992.835 425.874C992.048 421.676 991.483 417.248 990.875 413.006C996.588 412.37 1002.43 410.998 1004.22 404.616C1004.9 402.17 1004.54 399.551 1003.22 397.38C1000.73 393.234 997.079 392.319 992.827 391.39C968.674 397.662 992.098 435.042 948.239 432.287C931.115 426.824 923.893 408.066 933.777 392.231C938.055 385.379 949.478 382.976 957.113 382.221C957.345 386.01 958.151 390.946 958.623 394.851C953.123 395.55 948.885 396.11 944.854 400.189C940.675 404.286 939.343 411.469 944.401 415.408C952.69 422.129 962.486 420.998 965.947 410.04C971.313 393.056 970.709 380.534 992.314 378.785Z"/><path fill="#282626" transform="matrix(3.02154 0 0 3.02188 0 -0.000244141)" d="M309.706 740.419C325.941 739.055 342.426 751.859 337.806 769.589C336.707 773.808 334.022 777.334 331.541 780.874C328.553 778.814 324.951 775.76 322.058 773.443C326.28 764.51 329.679 755.586 316.977 752.242C308.946 750.128 302.203 759.028 304.312 767.018C307.125 777.673 317.905 786.922 316.507 797.863C314.559 813.113 301.159 821.685 286.29 820.328C262.361 812.159 257.531 793.844 273.964 774.915L284.163 782.394C279.57 788.347 278.599 789.143 276.434 796.221C280.638 807.65 290.799 814.565 301.339 802.302C307.106 795.592 294.076 778.975 291.466 770.956C286.663 756.202 295.396 744.988 309.706 740.419Z"/><path fill="#282626" transform="matrix(3.02154 0 0 3.02188 0 -0.000244141)" d="M719.339 795.17C720.793 795.876 721.107 796.547 721.726 798.125C728.006 813.022 733.408 829.278 739.599 844.112C746.033 859.528 747.424 876.496 728.563 883.551C699.914 894.267 694.773 871.68 687.263 851.319L676.663 823.157L672.926 813.411C676.769 811.862 681.01 810.384 684.921 808.934C689.976 819.97 704.154 867.759 711.928 872.388C715.059 874.253 719.324 874.098 722.701 873.054C725.789 872.099 728.714 870.093 730.073 867.076C731.56 863.773 730.888 859.219 730.112 855.768C728.403 848.163 724.871 840.873 722.036 833.624C717.69 822.277 713.259 810.962 708.746 799.681L719.339 795.17Z"/><path fill="#282626" transform="matrix(3.02154 0 0 3.02188 0 -0.000244141)" d="M993.496 312.834C993.859 313.041 994.222 313.248 994.585 313.454C999.061 326.906 1002.7 341.121 1006.78 354.707C1002.7 356.092 999.086 357.115 994.839 357.79C992.53 348.525 989.322 338.034 986.758 328.727L965.875 334.885C968.327 343.9 970.739 353.301 973.607 362.162C969.926 363.395 965.817 364.501 962.063 365.594C959.551 356.459 956.937 347.352 954.221 338.275L946.591 340.655C941.004 342.315 935.386 343.866 929.739 345.307C931.887 354.309 935.867 366.582 938.662 375.431L926.792 379.055C922.403 364.792 918.375 350.42 914.709 335.955C940.309 328.374 967.879 319.65 993.496 312.834Z"/><path fill="#282626" transform="matrix(3.02154 0 0 3.02188 0 -0.000244141)" d="M643.757 6.82355C654.586 8.70459 676.252 13.3324 686.244 16.6368L683.943 27.5662C675.907 26.2994 662.67 22.8847 654.348 21.0161C652.679 28.255 651.034 35.3311 649.645 42.6308C657.355 44.8476 668.815 47.1467 677.087 49.2085C676.397 52.9255 675.469 56.916 674.679 60.6407C665.547 58.2093 656.102 56.1675 646.866 54.109L644.485 64.3595C643.206 69.5936 641.964 74.8367 640.76 80.0885C650.499 81.6162 661.931 84.6022 671.653 86.9079C670.745 90.7152 669.904 94.5381 669.131 98.3749C654.653 95.1007 640.198 91.7281 625.766 88.2571C630.688 63.425 637.085 38.7309 642.387 13.9622C642.908 11.528 643.395 9.29011 643.757 6.82355Z"/><path fill="#282626" transform="matrix(3.02154 0 0 3.02188 0 -0.000244141)" d="M359.197 770.922C366.521 773.684 389.47 787.642 396.816 791.936L391.365 801.621C382.897 797.815 372.973 791.592 364.165 787.222C361.592 792.54 356.453 800.75 353.344 806.37L378.153 820.679L372.819 830.604C364.859 826.423 354.858 821.056 347.258 816.383L340.856 827.581C339.199 830.841 336.24 835.409 334.284 838.643C342.19 844.124 353.887 850.474 362.39 855.366C360.435 858.688 358.521 862.035 356.649 865.405C343.539 858.056 330.099 850.052 317.089 842.484C330.698 817.922 345.446 794.968 359.197 770.922Z"/><path fill="#282626" transform="matrix(3.02154 0 0 3.02188 0 -0.000244141)" d="M802.166 67.7984C812.508 73.4101 827.938 85.1315 837.726 92.3867C836.288 94.944 832.975 99.3169 831.173 101.848C826.203 99.0572 811.808 88.4625 806.057 84.6734C802.236 90.6323 797.827 96.5961 793.687 102.374C801.154 108.074 808.875 113.244 816.549 119.176C814.346 122.187 812.089 125.157 809.779 128.087C803.389 124.334 792.952 116.458 786.587 111.957C784.885 114.859 782.162 118.503 780.178 121.324C777.535 124.602 773.945 130.09 771.442 133.689C780.202 139.273 788.991 145.608 797.409 151.702C795.078 154.783 792.961 157.955 790.793 161.148C780.476 154.892 764.369 142.846 754.186 135.732C769.932 112.914 785.926 90.2681 802.166 67.7984Z"/><path fill="#282626" transform="matrix(3.02154 0 0 3.02188 0 -0.000244141)" d="M952.48 252.516C962.107 251.898 973.643 255.462 977.857 264.617C985.991 282.291 977.701 292.971 962.61 300.493C960.785 297.196 958.763 292.756 957.065 289.301C964.952 285.367 975.022 278.284 964.752 267.454C962.429 265.004 954.959 265.505 951.498 266.352C937.771 269.711 917.978 277.518 909.868 289.79C906.002 309.473 926.257 302.752 936.54 299.135C937.982 302.864 940.182 307.23 941.913 310.902C938.277 312.747 934.434 314.153 930.466 315.09C922.81 316.863 913.92 317.063 907.163 312.554C896.976 305.755 893.492 289.751 901.045 279.803C912.34 264.927 934.69 255.719 952.48 252.516Z"/><path fill="#282626" transform="matrix(3.02154 0 0 3.02188 0 -0.000244141)" d="M258.629 675.885C261.625 677.413 282.118 703.878 286.087 708.655L276.932 715.748C270.526 708.534 263.933 700.02 257.825 692.453C252.371 697.185 246.002 702.001 240.281 706.501C246.294 713.85 252.249 721.247 258.144 728.692L248.846 735.804C243.341 729.642 236.613 720.701 231.037 714.09C228.004 716.463 224.953 718.81 221.882 721.133C218.01 724.145 214.19 727.221 210.422 730.361L230.459 754.744L221.304 762.197C214.334 754.794 199.887 735.965 193.422 727.592C201.364 720.466 211.366 712.885 219.849 706.246L258.629 675.885Z"/><path fill="#282626" transform="matrix(3.02154 0 0 3.02188 0 -0.000244141)" d="M531.49 828.371L574.873 829.476L574.689 840.463C564.242 840.528 554.636 840.078 543.964 840.358L543.562 863.1C553.059 863.249 562.715 863.19 572.225 863.221L572.193 874.561L543.08 874.514L542.836 885.212C542.722 890.204 542.58 895.195 542.411 900.185C551.923 900.52 565.375 900.225 574.364 901.108L574.308 912.62C559.425 912.486 544.545 912.119 529.673 911.519C529.823 883.893 531.26 856.092 531.49 828.371Z"/><path fill="#282626" transform="matrix(3.02154 0 0 3.02188 0 -0.000244141)" d="M904.735 154.992C907.664 157.572 910.756 162.045 913.11 165.289C899.196 183.344 884.952 199.544 871.063 218.65C887.07 209.264 914.769 197.592 932.164 190.053C935.006 193.374 937.573 197.093 940.133 200.65C936.199 202.547 931.67 204.336 927.612 206.042C906.59 215.74 883.684 224.73 862.147 234.469L852.925 222.878C857.722 215.718 864.835 207.071 870.071 200.002C881.34 184.789 892.817 169.704 904.735 154.992Z"/><path fill="#282626" transform="matrix(3.02154 0 0 3.02188 0 -0.000244141)" d="M463.819 817.469L477.095 819.922C478.819 842.42 479.873 865.239 481.526 887.816C484.968 881.807 489.21 871.758 492.182 865.211L509.782 826.126C514.056 826.913 518.313 827.785 522.552 828.741C520.98 832.424 518.989 836.384 517.252 840.027C507.183 862.198 495.874 884.596 485.152 906.506L471.362 903.699C468.141 877.119 465.88 844.525 463.819 817.469Z"/><path fill="#BF9961" transform="matrix(3.02154 0 0 3.02188 0 -0.000244141)" d="M1046.94 472.176C1070.76 470.882 1069.2 498.183 1068.94 515.244C1068.7 530.901 1059.25 552.932 1039.01 542.077C1034.22 539.507 1032.73 532.466 1031.74 527.343C1034.16 527.22 1036.71 527.293 1039.15 527.314C1039.99 527.895 1041.56 531.989 1042.44 533.198C1048.06 540.93 1054.42 538.599 1057.66 530.425C1060.11 524.233 1060.25 519.087 1060.69 512.757C1052.77 519.22 1041.86 523.906 1034.94 512.547C1026.34 498.446 1029.3 477.923 1046.94 472.176ZM1052.12 511.53C1055.99 509.368 1058.04 507.765 1059.22 503.183C1061.6 493.918 1060.23 479.263 1047.64 479.722C1043.16 482.465 1040.62 485.183 1039.61 490.56C1037.7 500.783 1039.49 511.755 1052.12 511.53Z"/><path fill="#282626" transform="matrix(3.02154 0 0 3.02188 0 -0.000244141)" d="M911.386 593.122C918.492 597.884 936.544 627.471 945.072 634.342C953.545 641.168 966.632 647.145 976.476 652.144L970.312 663.657C961.239 659.825 946.632 649.191 937.354 648.454C919.881 648.424 901.893 647.67 884.333 647.339L891.11 634.347C894.537 634.899 902.283 635.151 905.879 635.34L932.153 636.707C923.53 626.056 914.678 615.592 905.605 605.322L911.386 593.122Z"/><path fill="#282626" transform="matrix(3.02154 0 0 3.02188 0 -0.000244141)" d="M879.211 655.446C882.13 657.051 885.92 659.991 888.697 662.016L877.054 678.074C894.835 691.992 917.03 707.116 935.701 720.634C933.041 724.117 930.424 727.633 927.849 731.181C922.269 726.879 916.594 722.702 910.829 718.652C908.929 716.873 899.931 710.678 897.369 708.849L869.403 688.92L856.954 705.677C853.357 703.151 850.93 701.316 847.594 698.464C858.065 685.096 869.09 669.299 879.211 655.446Z"/><path fill="#282626" transform="matrix(3.02154 0 0 3.02188 0 -0.000244141)" d="M795.695 747.739C796.883 747.879 797.321 748.099 798.149 749.097C812.768 766.717 827.073 785.038 842.219 802.182C850.488 795.251 858.629 788.168 866.638 780.938L874.572 790.019L865.422 797.803C856.988 805.096 848.477 812.3 839.891 819.414C834.621 814.334 825.738 803.066 820.828 797.13L786.523 755.361C789.535 752.766 792.592 750.225 795.695 747.739Z"/><path fill="#BF9961" transform="matrix(3.02154 0 0 3.02188 0 -0.000244141)" d="M137.816 471.69C153.737 470.47 157.571 478.19 159.555 492.084C156.983 492.267 154.37 492.217 151.788 492.218C150.173 484.195 148.685 479.103 139.378 479.316C132.63 479.471 128.391 485.858 129.528 492.009C131.509 502.733 147.407 503.158 154.442 509.236C163.385 516.225 162.732 529.369 156.771 538.08C153.213 543.279 145.049 544.531 138.871 545.035C122.643 542.788 120.571 534.487 119.956 520.231L128.248 520.538L128.266 521.256C128.4 526.277 128.879 530.71 132.937 534.312C135.417 536.509 138.724 537.529 142.011 537.112C151.488 536.006 152.969 527 151.656 519.192C144.955 511.716 137.927 511.256 129.079 506.731C118.908 501.529 119.023 488.899 123.966 480.031C126.774 474.993 132.383 472.976 137.816 471.69Z"/><path fill="#BF9961" transform="matrix(3.02154 0 0 3.02188 0 -0.000244141)" d="M70.7369 473.073C82.2647 473.223 93.9866 473.14 105.53 473.164L105.561 480.67L79.0672 480.706C79.2516 487.957 79.1192 495.777 79.133 503.073L104.051 502.933L104.302 510.643C95.8991 510.57 87.4957 510.581 79.093 510.677L79.2795 515.533L79.3339 535.798C87.5654 535.675 98.4613 535.521 106.501 536.098L106.576 543.666C95.4023 543.215 82.1252 543.506 70.7946 543.477L70.7369 473.073Z"/><path fill="#BF9961" transform="matrix(3.02154 0 0 3.02188 0 -0.000244141)" d="M895.145 472.239C903.014 471.868 909.694 473.778 913.419 481.431C925.777 506.824 894.279 516.397 887.252 536.184L916.08 536.328L916.043 544.02C905.29 543.684 894.533 543.524 883.775 543.542C875.904 543.766 878.452 536.273 880.487 531.438C885.932 518.493 899.537 511.278 906.281 499.108C908.295 495.475 908.507 488.047 905.571 484.439C892.609 472.015 888.127 486.682 887.578 496.551L879.398 496.469C879.573 483.802 881.342 475.703 895.145 472.239Z"/><path fill="#282626" transform="matrix(3.02154 0 0 3.02188 0 -0.000244141)" d="M840.062 706.869C845.723 711.269 854.705 720.347 860.017 725.368C873.456 738.073 886.73 751.8 900.71 763.882C897.521 766.824 894.572 769.91 891.551 773.018C885.458 770.27 839 723.848 831.16 716.024L840.062 706.869Z"/><path fill="#282626" transform="matrix(3.02154 0 0 3.02188 0 -0.000244141)" d="M538.366 0.781475L544.935 0.513954C546.053 25.9531 547.042 58.5449 549.492 83.4461C547.834 83.7279 544.772 83.9073 542.992 84.0706L536.445 84.3364C535.221 75.2208 534.718 60.7059 534.187 51.3772C533.264 35.1606 532.177 17.5862 531.954 1.36591L538.366 0.781475Z"/><path fill="#282626" transform="matrix(3.02154 0 0 3.02188 0 -0.000244141)" d="M948.003 215.806C950.779 216.587 954.432 223.704 956.211 226.602L885.184 268.162L884.433 268.307C882.033 267.327 879.032 260.558 877.69 257.924C883.042 254.188 891.814 249.402 897.575 245.864C914.096 235.72 931.689 226.215 948.003 215.806Z"/><path fill="#BF9961" transform="matrix(3.02154 0 0 3.02188 0 -0.000244141)" d="M871.379 558.163C882.903 557.834 895.964 558.111 907.62 558.113L976.52 558.131L1041.26 558.096C1045.86 558.093 1076.65 557.615 1078.36 558.823C1079.13 560.834 1078.89 560.215 1078.51 562.619C1064.07 563.297 1044.66 562.723 1029.97 562.72L935.762 562.741L895.604 562.831C891.267 562.859 875.586 563.215 872.24 562.432C871.005 560.723 871.44 560.756 871.379 558.163Z"/><path fill="#BF9961" transform="matrix(3.02154 0 0 3.02188 0 -0.000244141)" d="M870.97 460.656L1018.93 460.558L1058.09 460.531C1062.18 460.523 1074.22 460.265 1077.59 460.799C1079.11 462.218 1078.86 462.813 1079.45 465.077L934.925 465.027L893.773 465.076C888.978 465.083 876.845 465.4 872.458 464.857C870.921 463.496 871.386 463.322 870.97 460.656Z"/><path fill="#BF9961" transform="matrix(3.02154 0 0 3.02188 0 -0.000244141)" d="M170.182 472.888C183.517 472.385 198.641 472.694 212.109 472.674L212.217 480.661C206.598 480.561 200.978 480.553 195.36 480.635C195.499 496.346 195.115 512.206 195.239 528L195.383 543.511L186.963 543.519C186.742 522.57 186.751 501.62 186.99 480.671C181.3 480.556 175.609 480.54 169.919 480.623L170.182 472.888Z"/><path fill="#BF9961" transform="matrix(3.02154 0 0 3.02188 0 -0.000244141)" d="M65.4403 558.151C77.9203 557.768 91.6132 558.024 104.172 558.026L180.626 558.151L215.317 558.087C219.551 558.079 230.907 557.826 234.392 558.631C235.639 560.206 235.222 560.121 235.372 562.595C183.067 563.313 130.483 562.112 78.1452 562.802C75.2034 562.84 68.9993 562.971 66.407 562.179C65.2117 560.504 65.6054 560.591 65.4403 558.151Z"/><path fill="#BF9961" transform="matrix(3.02154 0 0 3.02188 0 -0.000244141)" d="M65.408 460.646C74.2797 460.171 87.2143 460.567 96.3525 460.576L157.068 460.622L209.783 460.575C213.861 460.566 231.878 460.233 234.407 460.976C235.635 462.556 235.279 462.708 235.601 465.033L115.807 465.043L82.2648 465.032C78.8856 465.029 69.3379 465.242 66.3699 464.713C65.116 463.219 65.5448 463.117 65.408 460.646Z"/><path fill="#BF9961" transform="matrix(3.02154 0 0 3.02188 0 -0.000244141)" d="M1001.81 472.693C1003.94 472.632 1005.04 472.691 1007.16 472.908C1008.74 474.606 1007.95 536.018 1007.97 543.509L999.974 543.452L999.938 535.887L999.821 492.149C995.439 492.282 986.026 493.668 985.022 488.006C986.816 484.406 994.278 483.847 997.758 482.012C1000.05 480.802 1001.14 475.156 1001.81 472.693Z"/><path fill="#BF9961" transform="matrix(3.02154 0 0 3.02188 0 -0.000244141)" d="M212.913 533.534L221.418 533.556C221.71 536.804 221.563 540.135 221.504 543.401L212.802 543.347L212.913 533.534Z"/><defs><linearGradient id="gradient_0" gradientUnits="userSpaceOnUse" x1="333.36996" y1="95.818825" x2="329.83401" y2="97.491837"><stop offset="0" stop-color="white" stop-opacity="0"/><stop offset="1" stop-color="#F7F6F7" stop-opacity="0.035294119"/></linearGradient></defs><path fill="url(#gradient_0)" transform="matrix(3.02154 0 0 3.02188 0 -0.000244141)" d="M324.595 87.8291C327.725 90.8882 331.36 94.5736 334.059 97.9823L334.414 98.8614C334.952 100.159 335.354 100.682 336.173 101.798C335.683 102.604 336.014 102.255 335.138 102.8C334.141 102.172 334.567 102.583 333.894 101.534L333.173 101.814C331.862 100.443 325.879 90.0134 324.595 87.8291Z"/><path fill="#282626" transform="matrix(3.02154 0 0 3.02188 0 -0.000244141)" d="M568.279 0L580.86 0C581.688 0.234912 582.694 0.456915 583.447 0.870828C586.917 2.77702 599.67 57.5635 602.765 66.5657C602.343 47.5035 605.883 21.9758 606.648 2.18158L619.624 3.41274C617.221 21.2507 616.969 40.4551 615.18 58.45C614.286 67.4421 613.575 77.6215 613.458 86.57C608.368 86.4348 602.305 85.6775 597.166 85.1648L578.808 19.8903C577.589 41.1875 575.878 62.4021 574.764 83.6813C570.385 83.3605 566.61 83.0005 562.26 82.422C562.441 79.0208 562.685 75.4892 562.973 72.0954C564.995 48.2571 565.61 23.7399 568.279 0Z"/></svg>